{"title":"The Talking Dead S04xE06","uid":11487308,"size":305740376,"categoryP":"video","categoryS":"tv_shows","magnet":"?xt=urn:btih:48cff2024f3df0dd423218a417a821bceda22445&amp;dn=The+Talking+Dead+S04xE06&amp;tr=udp%3A%2F%2Ftracker.openbittorrent.com%3A80&amp;tr=udp%3A%2F%2Fopen.demonii.com%3A1337&amp;tr=udp%3A%2F%2Ftracker.coppersurfer.tk%3A6969&amp;tr=udp%3A%2F%2Fexodus.desync.com%3A6969","seeders":0,"leechers":0,"uploader":"pspxxx","files":1,"time":1416232614,"description":"The Talking Dead S04xE06\n\nGeneral\nComplete name                            : J:Talking.Dead.S04E06.XVid.PSPXXX.avi\nFormat                                   : AVI\nFormat/Info                              : Audio Video Interleave\nFile size                                : 292 MiB\nDuration                                 : 41mn 52s\nOverall bit rate                         : 973 Kbps\nWriting application                      : MEncoder Sherpya-SVN-r34401-4.6.2\nWriting library                          : MPlayer\n\nVideo\nID                                       : 0\nFormat                                   : MPEG-4 Visual\nFormat profile                           : Advanced Simple@L5\nFormat settings, BVOP                    : 2\nFormat settings, QPel                    : No\nFormat settings, GMC                     : No warppoints\nFormat settings, Matrix                  : Default (H.263)\nCodec ID                                 : XVID\nCodec ID/Hint                            : XviD\nDuration                                 : 41mn 52s\nBit rate                                 : 832 Kbps\nWidth                                    : 640 pixels\nHeight                                   : 360 pixels\nDisplay aspect ratio                     : 16:9\nFrame rate                               : 29.970 fps\nColor space                              : YUV\nChroma subsampling                       : 4:2:0\nBit depth                                : 8 bits\nScan type                                : Progressive\nCompression mode                         : Lossy\nBits/(Pixel*Frame)                       : 0.121\nStream size                              : 249 MiB (85%)\nWriting library                          : XviD 63\n\nAudio\nID                                       : 1\nFormat                                   : MPEG Audio\nFormat version                           : Version 1\nFormat profile                           : Layer 3\nMode                                     : Joint stereo\nMode extension                           : MS Stereo\nCodec ID                                 : 55\nCodec ID/Hint                            : MP3\nDuration                                 : 41mn 52s\nBit rate mode                            : Constant\nBit rate                                 : 128 Kbps\nChannel(s)                               : 2 channels\nSampling rate                            : 44.1 KHz\nCompression mode                         : Lossy\nDelay relative to video                  : 33ms\nStream size                              : 38.3 MiB (13%)\nAlignment                                : Aligned on interleaves\nInterleave, duration                     : 26 ms (0.78 video frame)\nInterleave, preload duration             : 522 ms","torrent":{"xt":"urn:btih:48cff2024f3df0dd423218a417a821bceda22445","amp;dn":"The+Talking+Dead+S04xE06","amp;tr":["udp%3A%2F%2Ftracker.openbittorrent.com%3A80","udp%3A%2F%2Fopen.demonii.com%3A1337","udp%3A%2F%2Ftracker.coppersurfer.tk%3A6969","udp%3A%2F%2Fexodus.desync.com%3A6969"],"infoHash":"48cff2024f3df0dd423218a417a821bceda22445","infoHashBuffer":{"type":"Buffer","data":[72,207,242,2,79,61,240,221,66,50,24,164,23,168,33,188,237,162,36,69]},"announce":[],"urlList":[]}}